#!OML:ASF E:\acrobat2\Project_11_07_03\Capture day 1\Session 1\Acrobat.ASF
:FULLY-SPECIFIED
:DEGREES
611
root 12.4179 18.4069 29.2855 189.542 -94.0717 174.198
lowerback -2.21498 0.384015 0.571169
upperback -3.70713 0.453766 0.133812
thorax -2.55835 0.188699 -0.181733
lowerneck -1.18144 -2.10256 1.21898
upperneck 2.16009 -2.92252 2.97393
head 0.883742 -1.42847 0.675498
rclavicle -2.06022e-014 -5.64051e-015
rhumerus -18.3235 -32.6979 -358.515
rradius 21.8518
rwrist 367.646
rhand -11.7297 -47.0534
rfingers 7.12502
rthumb 14.3174 -76.5398
lclavicle -2.06022e-014 -5.64051e-015
lhumerus 4.41024 19.4833 8.14321
lradius 20.1428
lwrist 8.58981
lhand -18.4895 -6.69329
lfingers 7.12502
lthumb 7.79793 23.1429
rfemur 4.27871 16.657 3.69478
rtibia 0.0511908
rfoot -30.0711 -32.7937
rtoes 35.6718
lfemur 7.52755 -10.3667 -9.45762
ltibia -5.68764
lfoot -202.478 176.56
ltoes 43.0659
612
root 12.4218 18.4109 29.3068 188.619 -94.4204 175.054
lowerback -2.20429 0.35007 0.489039
upperback -3.72036 0.407426 0.0503182
thorax -2.5783 0.166422 -0.221489
lowerneck -1.32031 -1.97982 0.889967
upperneck 2.37264 -2.77543 3.40362
head 0.985448 -1.34946 0.8629
rclavicle 1.64417e-014 -6.83322e-017
rhumerus -18.6688 -32.4715 -358.553
rradius 21.8889
rwrist 367.648
rhand -11.8591 -47.163
rfingers 7.12502
rthumb 14.1927 -76.6581
lclavicle 1.64417e-014 -6.83322e-017
lhumerus 4.48791 20.1092 8.25167
lradius 19.9273
lwrist 7.60552
lhand -18.3632 -7.25044
lfingers 7.12502
lthumb 7.91981 22.5812
rfemur 4.5633 17.5816 3.73139
rtibia -0.351329
rfoot -29.0655 -35.3513
rtoes 30.9992
lfemur 7.33494 -9.73594 -9.35723
ltibia -5.42338
lfoot -201.735 176.025
ltoes 43.0929
613
root 12.4286 18.4121 29.3356 188.008 -94.6561 175.669
lowerback -2.22388 0.337682 0.518506
upperback -3.75728 0.388741 -0.0053566
thorax -2.605 0.154927 -0.295091
lowerneck -1.36236 -1.94371 0.780365
upperneck 2.41075 -2.72673 3.42121
head 1.00596 -1.32465 0.886934
rclavicle 1.71856e-014 1.36664e-016
rhumerus -18.7883 -32.2521 -358.618
rradius 21.8273
rwrist 367.688
rhand -12.2344 -47.1742
rfingers 7.12502
rthumb 13.8311 -76.6943
lclavicle 1.71856e-014 1.36664e-016
lhumerus 4.32931 20.4077 8.3039
lradius 19.851
lwrist 7.06171
lhand -18.1996 -7.42255
lfingers 7.12502
lthumb 8.07767 22.4031
rfemur 4.43237 16.5406 3.41706
rtibia -0.164725
rfoot -27.8213 -35.1685
rtoes 30.1809
lfemur 7.0555 -9.30166 -9.35904
ltibia -5.07915
lfoot -201.259 175.397
ltoes 43.3884
614
root 12.432 18.4149 29.3579 189.037 -94.8502 174.662
lowerback -2.2819 0.374563 0.652881
upperback -3.80388 0.434681 -0.0530306
thorax -2.61886 0.172785 -0.419082
lowerneck -1.35243 -2.0061 0.902019
upperneck 2.31506 -2.80185 3.2064
head 0.969303 -1.36444 0.799279
rclavicle -1.7434e-014 -1.44119e-015
rhumerus -18.9738 -31.8689 -358.728
rradius 21.7632
rwrist 367.532
rhand -12.6852 -47.4472
rfingers 7.12502
rthumb 13.3966 -76.9964
lclavicle -1.7434e-014 -1.44119e-015
lhumerus 4.15628 19.7614 8.11479
lradius 19.9138
lwrist 7.3414
lhand -17.9347 -7.13134
lfingers 7.12502
lthumb 8.33333 22.6843
rfemur 4.42635 16.4209 3.35576
rtibia -0.159285
rfoot -28.4119 -34.9134
rtoes 31.2303
lfemur 6.79146 -8.96759 -9.23499
ltibia -4.75091
lfoot -200.957 174.712
ltoes 44.0276
615
root 12.4358 18.4178 29.3761 189.47 -95.0692 174.298
lowerback -2.39825 0.414385 0.678666
upperback -3.85401 0.484107 -0.101211
thorax -2.60413 0.195174 -0.482349
lowerneck -1.31569 -2.0521 0.978959
upperneck 2.2263 -2.85642 3.06336
head 0.932053 -1.39383 0.742151
rclavicle 4.60932e-015 1.63997e-015
rhumerus -19.1796 -32.2353 -358.751
rradius 21.6118
rwrist 368.056
rhand -12.9989 -47.8306
rfingers 7.12502
rthumb 13.0942 -77.3995
lclavicle 4.60932e-015 1.63997e-015
lhumerus 4.03351 19.0509 7.94014
lradius 19.9646
lwrist 7.57709
lhand -17.6462 -7.07008
lfingers 7.12502
lthumb 8.6118 22.7343
rfemur 4.54215 17.4396 3.38256
rtibia -0.555539
rfoot -28.2143 -36.7927
rtoes 28.2689
lfemur 6.40324 -8.25011 -9.05765
ltibia -4.33741
lfoot -200.215 174.181
ltoes 44.6483
616
root 12.4385 18.4191 29.3949 188.309 -95.3781 175.476
lowerback -2.52846 0.405964 0.597926
upperback -3.84122 0.47091 -0.173032
thorax -2.51803 0.189934 -0.509932
lowerneck -1.2836 -1.99102 0.879456
upperneck 2.26023 -2.77466 3.12212
head 0.938977 -1.35295 0.778097
rclavicle 2.21769e-015 1.68967e-015
rhumerus -19.3205 -33.4454 -358.614
rradius 21.3434
rwrist 369.413
rhand -13.1938 -47.9353
rfingers 7.12502
rthumb 12.9064 -77.5162
lclavicle 2.21769e-015 1.68967e-015
lhumerus 3.94844 19.0984 7.96453
lradius 19.9619
lwrist 7.1972
lhand -17.3645 -7.10975
lfingers 7.12502
lthumb 8.88364 22.6832
rfemur 4.6189 17.0841 3.15778
rtibia -0.606409
rfoot -27.1676 -37.3275
rtoes 26.7521
lfemur 6.01594 -7.32739 -8.9838
ltibia -3.84501
lfoot -199.169 173.73
ltoes 45.0102
617
root 12.4366 18.4198 29.4127 187.281 -95.7853 176.489
lowerback -2.69836 0.36197 0.580595
upperback -3.78663 0.410073 -0.280892
thorax -2.36652 0.159379 -0.609922
lowerneck -1.11025 -1.83288 0.910907
upperneck 2.20064 -2.55873 3.11451
head 0.887839 -1.24735 0.77475
rclavicle -7.85199e-015 -1.19271e-015
rhumerus -19.6399 -33.7462 -358.534
rradius 21.291
rwrist 369.857
rhand -13.3923 -47.9645
rfingers 7.12502
rthumb 12.7151 -77.5574
lclavicle -7.85199e-015 -1.19271e-015
lhumerus 3.91643 19.2993 7.9708
lradius 19.9215
lwrist 6.89559
lhand -17.1693 -7.19947
lfingers 7.12502
lthumb 9.07195 22.5854
rfemur 4.8936 17.0697 3.04261
rtibia -0.900086
rfoot -25.3571 -38.9426
rtoes 22.7534
lfemur 5.71582 -6.68678 -8.9575
ltibia -3.43134
lfoot -198.181 172.923
ltoes 46.4301
